<svg xmlns="http://www.w3.org/2000/svg" xmlns:xlink="http://www.w3.org/1999/xlink" width="1920" height="1080"><defs><path id="a" d="M0 59.657h123.998V.322H0z"/></defs><g fill="none" fill-rule="evenodd"><path fill="#5C94FC" d="M4 1080h1913V0H4z"/><path fill="#6EA0FC" d="M1903.198 248.619v47.128h-25.757v-47.128h-41.607v30.878h-67.364v47.127h-59.439v-78.005h-47.55v45.507h-65.382v-45.507h-45.57v42.254h-55.476v-42.254h-65.383v19.503h-91.139v-19.503h-55.476v56.882h-53.494v-56.882h-41.608v30.878h-77.27v37.379h-73.306v-52.003h-49.533v27.626h-43.589V260h-61.419v38.999h-91.139v-50.38h-73.309v24.377h-61.419v-24.377h-55.475v22.756H518.28v40.621h-53.495v-63.377h-47.551v34.131H349.87v-34.131h-33.682v21.129H213.16v52.003h-47.55v-73.132H94.285v29.251H4v553.511h1913V248.619z"/><path fill="#75A5FF" d="M1903.198 497.238v47.122h-25.757v-47.122h-41.607v30.872h-67.364v47.129h-59.439v-78.001h-47.55v45.5h-65.382v-45.5h-45.57v42.248h-55.476v-42.248h-65.383v19.497h-91.139v-19.497h-55.476v56.876h-53.494v-56.876h-41.608v30.872h-77.27v37.38h-73.306v-52.003h-49.533v27.626h-43.589v-32.499h-61.419v38.999h-91.139v-50.375h-73.309v24.372h-61.419v-24.372h-55.475v22.75H518.28v40.628h-53.495v-63.378h-47.551v34.125H349.87v-34.125h-33.682v21.124H213.16v52.002h-47.55v-73.126H94.285v29.251H4V1080h1913V497.238z"/><path fill="#C1E4F4" d="M547.404 163.97v-3.039h-3.595v-3.043h-3.595v-6.083h-3.596V130.511h-3.596v3.043h-3.596v3.04h-21.575v-3.04h-3.596v-3.043h-3.596v-3.042h-3.595v3.042h-3.596v6.083h-3.596v3.043h-3.596v3.043h-3.595v3.04h-7.192v3.042H446.723v-3.042H439.532v-3.04h-3.596v-3.043h-3.596v-3.043h-7.192v3.043h-3.595v3.043h-21.574v-3.043h-3.596v-3.043h-3.596v-6.083h-3.595v-12.168h-3.597V127.469H382V145.72h3.595v9.124h3.597v6.087h3.595v3.039h3.596v3.043H403.573v3.043H547.404v-3.043H551v-3.043z"/><path fill="#FEFEFE" d="M558.395 136.552v-6.103h-3.604v-3.053h-3.604v-3.05h-3.604v-3.053h-10.811V112.137h-3.605v-9.155h-3.604v-3.053h-3.604v-3.053h-3.604v-3.05h-3.605v-3.053h-28.834v3.053h-3.604V87.72h-3.604v-3.05h-7.209v-3.053h-3.604v-3.053H450.271v3.053h-7.208v3.053h-3.604v3.05h-3.605v3.053h-3.604v3.053h-3.605V102.982h-25.229v3.049h-7.208v3.054h-3.603v3.052H389v18.312h3.605v6.103h3.603v3.053h3.605v3.053h21.624v-3.053h3.604v-3.053h7.209v3.053h3.604v3.053h3.605v3.05h7.208v3.053h28.832v-3.053h7.209v-3.05h3.604v-3.053h3.604v-3.053h3.605v-6.103h3.604v-3.053h3.604v3.053h3.604v3.053h3.604v3.05H529.563v-3.05h3.604v-3.053h3.605V151.814h3.603v6.102h3.605v3.054h3.603v3.049h3.604v3.053h3.604v-6.102h3.604v-3.054H562V136.552z"/><path fill="#C1E4F4" d="M1828.554 328.293v-2.923h-3.447v-2.926h-3.447v-5.849h-3.447V296.12h-3.446v2.926h-3.448v2.923h-20.681v-2.923h-3.447v-2.926h-3.445v-2.926h-3.448v2.926h-3.447v5.849h-3.446v2.925h-3.447v2.927h-3.447v2.923H1759.618v2.925h-27.576v-2.925H1725.149v-2.923h-3.447v-2.927h-3.447v-2.925h-6.893v2.925h-3.448v2.927h-20.679v-2.927h-3.448v-2.925h-3.447v-5.849h-3.447V284.42h-3.447V293.194H1670V310.744h3.446V319.518h3.447v5.852h3.447v2.923h3.447v2.925h6.893v2.926H1828.554v-2.926H1832v-2.925z"/><path fill="#C1E4F4" d="M1828.554 328.293v-2.923h-3.447v-2.926h-3.447v-5.849h-3.447V296.12h-3.446v2.926h-3.448v2.923h-20.681v-2.923h-3.447v-2.926h-3.445v-2.926h-3.448v2.926h-3.447v5.849h-3.446v2.925h-3.447v2.927h-3.447v2.923H1759.618v2.925h-27.576v-2.925H1725.149v-2.923h-3.447v-2.927h-3.447v-2.925h-6.893v2.925h-3.448v2.927h-20.679v-2.927h-3.448v-2.925h-3.447v-5.849h-3.447V284.42h-3.447V293.194H1670V310.744h3.446V319.518h3.447v5.852h3.447v2.923h3.447v2.925h6.893v2.926H1828.554v-2.926H1832v-2.925z"/><path fill="#FEFEFE" d="M1838.563 304.001v-5.829h-3.436v-2.916h-3.438v-2.913h-3.437v-2.915h-10.314v-8.745h-3.437v-8.744h-3.437v-2.915h-3.438v-2.917h-3.438v-2.912h-3.438v-2.916h-27.498v2.916h-3.438v-5.832h-3.438v-2.912h-6.875v-2.916h-3.438v-2.916h-20.625v2.916h-6.876v2.916h-3.437v2.912h-3.438v2.916h-3.437v2.916h-3.438v8.744H1690.749v2.916H1683.875v2.913h-3.437v2.915H1677v17.489h3.438v5.829h3.437v2.915h3.438v2.916h20.624v-2.916h3.439v-2.915H1718.25v2.915h3.437v2.916h3.438v2.913H1732v2.916H1759.501v-2.916h6.875v-2.913h3.438v-2.916h3.438v-2.915h3.437v-5.829h3.437v-2.916h3.438v2.916H1787v2.916h3.437v2.913h20.627v-2.913h3.437v-2.916h3.437v20.405h3.438V324.405h3.438v2.916h3.438v2.913h3.437v2.915h3.438V327.321h3.436v-2.916H1842v-20.404z"/><path fill="#A2C253" d="M1364.457 1031.762h554.844V989h-554.844z"/><path fill="#8BA648" d="M1877.384 995.961v8.861h-84.241v6.091h-122.282v15.505h-54.35v-21.596h-70.65v7.751h-92.392v11.076h-89.012v8.113h554.844v-35.801z"/><path fill="#7E4D2E" d="M1364.457 1080.492h554.844v-48.73h-554.844z"/><path fill="#945835" d="M1752.381 1036.735v6.042h-21.735v8.792h-46.2v-8.792h-59.784v10.989h-46.195v-14.285h-86.957v6.045h-73.369v9.888h-53.684v9.887h64.556v15.191h35.323v-20.135h51.634v9.89h38.041v-6.593h84.24v8.79h40.762v-8.241h78.806v9.89h59.784v-7.143h51.629v2.199h50.069v-23.623h-12.023v8.24h-67.939v-9.34h-62.497v-7.691z"/><path fill="#7E4D2E" d="M1750.653 1059.608h35.925v-6.962h-35.925zm80.831 4.972h35.926v-6.961h-35.926zm-152.682 1.989h35.926v-6.961h-35.926zm-124.74 0h35.926v-6.961h-35.926zm-63.867-13.923h35.926v-6.961h-35.926zm-93.804 9.945h35.925v-6.961h-35.925zm342.287-30.829h43.908v-6.961h-43.908zm-209.564 2.984h43.909v-6.961h-43.909z"/><path fill="#8BA648" d="M1694.769 1035.74h43.909v-6.961h-43.909zm129.73-.994h43.908v-6.961h-43.908zm-220.541 1.989h43.909v-6.962h-43.909zm-169.646-1.989h43.908v-6.961h-43.908z"/><path fill="#A2C253" d="M.299 1031.762h1398.088V989H.299z"/><path fill="#8BA648" d="M1358.385 999.839v6.644h-27.174v6.645h-62.504v5.536h-59.787v-9.412h-27.173v-2.769h-54.352v-3.322h-48.915v8.305h-24.456v12.184h-27.175v-12.184h-43.48v-11.073h-29.895v15.503h-97.828v-14.95h-89.678v11.074h-48.914v5.537h-62.503v-7.198h-21.74v3.322h-62.503v-17.72h-57.07v8.861h-84.243v6.091H306.706v15.505h-54.348v-21.596h-70.654v7.752H89.306v11.076H.299v8.112h1398.088v-31.923z"/><path fill="#7E4D2E" d="M.299 1080.492h1398.088v-48.73H.299z"/><path fill="#945835" d="M1179.03 1031.762v11.558h-38.046v4.334h-48.914v-4.334h-73.371v6.499h-70.658v-18.057h-13.586v10.476h-84.243v11.371H746.945v-8.664h-67.937v-4.873h-21.74v16.786h-76.091v-10.829h-38.043v8.122h-67.94v-9.206h-62.5v-7.58h-24.461v5.955h-21.737v8.665h-46.2v-8.665H260.51v10.831h-46.198v-14.079h-86.96v5.957H53.981v9.746H.299v9.745h64.553v14.972h35.325v-19.844h51.636v9.746h38.043v-6.498h84.242v8.664h40.763v-8.122h78.805v9.746h59.791v-7.039h51.631v2.167h76.089v-5.416h133.157v-3.248h165.769v11.912h24.457v-6.498h133.159v14.43h51.631v-23.634h54.351v11.371h40.763v-8.123h95.115v16.244h65.217v-7.038h8.155v-12.454h45.436v-4.873h-29.131v-15.162h-76.092v8.665h-84.243v-13.726z"/><path fill="#A27357" d="M1347.493 1040.314h12.973v-.197c-4.326.043-8.652.109-12.973.197"/><path fill="#7E4D2E" d="M1222.753 1031.762h43.908v-6.961h-43.908zm-433.098 0h43.908v-6.961h-43.908zm-227.526 0h43.908v-6.961h-43.908zm-175.634 27.846h35.925v-6.962h-35.925zm80.831 4.972h35.926v-6.961h-35.926zm219.543-9.945h35.925v-6.961h-35.925zm-34.927 10.94h35.925v-6.962h-35.925zm134.719-7.956h35.925v-6.962h-35.925zm108.774 1.989h35.925v-6.962h-35.925zm60.873 2.983h35.925v-6.961h-35.925zm84.823-8.95h35.925v-6.961h-35.925zm93.805 2.983h35.925v-6.961h-35.925zm144.698-2.983h35.925v-6.961h-35.925zm27.942 12.928h35.925v-6.961h-35.925zm-84.823-3.978h35.925v-6.961h-35.925zm-155.676 11.934h35.925v-6.961h-35.925zm-752.433-7.956h35.926v-6.961h-35.926zm-124.74 0h35.926v-6.961h-35.926zm-63.867-13.923h35.926v-6.961h-35.926zm-93.804 9.945h35.925v-6.961H32.233zm342.287-30.829h43.908v-6.961H374.52zm545.863 2.984h43.908v-6.961h-43.908zm142.702 0h43.909v-6.961h-43.909zm-898.129 0h43.909v-6.961h-43.909z"/><path fill="#8BA648" d="M330.611 1035.74h43.909v-6.961h-43.909zm128.732-.994h43.909v-6.961h-43.909zm170.645 1.989h43.908v-6.962h-43.908zm87.817-1.989h43.908v-6.961h-43.908zm159.667 1.989h43.908v-6.962h-43.908zm119.75 0h43.909v-6.962h-43.909zm133.722 0h43.908v-6.962h-43.908zm159.667-3.978h43.909v-6.961h-43.909zM239.8 1036.735h43.909v-6.962H239.8zm-169.646-1.989h43.908v-6.961H70.154z"/><g><path fill="#20555D" d="M1859.11 993.263h5.002v-2.36h-5.002z"/><path fill="#1D525A" d="M1829.097 993.263h5.003v-2.36h-5.003z"/><path fill="#1D545B" d="M1609.007 993.263h5.002v-2.36h-5.002z"/><path fill="#1A4A51" d="M1819.094 990.903h5.002v-2.359h-5.002z"/><path fill="#1E525A" d="M1619.01 986.185h5.003v-2.358h-5.003z"/><path fill="#284F54" d="M1604.004 983.827h5.003v-2.36h-5.003z"/><path fill="#1D5159" d="M1864.112 981.467h5.003v-2.36h-5.003z"/><path fill="#426166" d="M1609.007 979.107h5.002v-2.358h-5.002z"/><path fill="#617B83" d="M1614.009 974.39h5.001v-2.36h-5.001z"/><path fill="#1A4C53" d="M1639.018 969.67h5.003v-2.358h-5.003z"/><path fill="#1D525A" d="M1644.022 967.312h5.001v-2.359h-5.001z"/><path fill="#1B4E55" d="M1879.119 964.953h5.002v-2.359h-5.002z"/><path fill="#1C4D54" d="M1839.102 964.953h5.002v-2.359h-5.002z"/><path fill="#1A4A51" d="M1734.058 964.953h5.003v-2.359h-5.003z"/><path fill="#506D74" d="M1629.016 960.234h5.001v-2.359h-5.001z"/><path fill="#1B5158" d="M1659.027 955.516h5.003v-2.359h-5.003z"/><path fill="#1B494F" d="M1859.11 953.157h5.002v-2.36h-5.002z"/><path fill="#32565B" d="M1639.018 953.157h5.003v-2.36h-5.003z"/><path fill="#1E5058" d="M1859.11 950.797h5.002v-2.359h-5.002z"/><path fill="#1F545C" d="M1744.063 950.797h5.001v-2.359h-5.001z"/><path fill="#284E53" d="M1644.022 950.797h5.001v-2.359h-5.001z"/><path fill="#20555D" d="M1839.102 941.36h5.002v-2.358h-5.002z"/><path fill="#1A4C54" d="M1744.063 941.36h5.001v-2.358h-5.001z"/><path fill="#1A484E" d="M1899.128 939.002h5.001v-2.359h-5.001z"/><path fill="#1B4B52" d="M1819.094 939.002h5.002v-2.359h-5.002z"/><path fill="#1B5158" d="M1689.04 931.924h5.002v-2.359h-5.002z"/><path fill="#1E555D" d="M1749.064 927.207h5.003v-2.36h-5.003z"/><path fill="#1C4D55" d="M1894.125 924.847h5.003v-2.36h-5.003z"/><path fill="#1A484E" d="M1809.089 924.847h5.003v-2.36h-5.003z"/><path fill="#617B83" d="M1679.036 924.847h5.001v-2.36h-5.001z"/><path fill="#4C6970" d="M1684.037 922.487h5.003v-2.359h-5.003z"/><path fill="#1B4B52" d="M1704.046 917.77h5.003v-2.36h-5.003z"/><path fill="#1C4D55" d="M1889.123 915.41h5.003v-2.36h-5.003z"/><path fill="#1A4C54" d="M1884.121 915.41h5.002v-2.36h-5.002z"/><path fill="#36595F" d="M1689.04 915.41h5.002v-2.36h-5.002z"/><path fill="#1B494F" d="M1794.083 913.05h5.003v-2.358h-5.003z"/><path fill="#BFCBD2" d="M1689.04 913.05h5.002v-2.358h-5.002z"/><path fill="#1D5159" d="M1789.082 910.692h5.001v-2.358h-5.001z"/><path fill="#1E5058" d="M1709.049 908.334h5.001v-2.36h-5.001z"/><path fill="#1B4B52" d="M1784.079 905.974h5.003v-2.36h-5.003z"/><path fill="#1F545C" d="M1714.05 898.897h5.001v-2.36h-5.001z"/><path fill="#E2E5E9" d="M1699.043 898.897h5.003v-2.36h-5.003z"/><path fill="#3F575B" d="M1779.077 894.178h5.002v-2.36h-5.002z"/><path fill="#2A5156" d="M1704.046 894.178h5.003v-2.36h-5.003z"/><path fill="#AEBBC4" d="M1704.046 891.818h5.003v-2.358h-5.003z"/><path fill="#27494C" d="M1784.079 889.46h5.003v-2.358h-5.003z"/><path fill="#2D4C50" d="M1789.082 884.74h5.001v-2.358h-5.001z"/><path fill="#748A93" d="M1709.049 884.74h5.001v-2.358h-5.001z"/><path fill="#284A4E" d="M1794.083 882.382h5.003v-2.359h-5.003z"/><path fill="#436268" d="M1714.05 877.665h5.001v-2.36h-5.001z"/><path fill="#1A4A51" d="M1859.11 875.305h5.002v-2.36h-5.002z"/><path fill="#40595C" d="M1804.088 872.945h5.002v-2.358h-5.002z"/><path fill="#528999" d="M1879.119 870.587h5.002v-2.359h-5.002z"/><path fill="#4D868F" d="M1874.116 870.587h5.003v-2.359h-5.003z"/><path fill="#27626E" d="M1914.133 924.846v9.438h5.002v7.076h.651v-11.795h-.651v-4.719zm-30.012 9.438v7.076h5.002v7.079h5.001v4.718h5.004v4.718h5.001v4.719h5.001v4.718h5.003v4.718h5.003v7.077h.65v-23.59h-5.653v-2.36h-5.003v-2.36h-5.001v-4.717h-5.001v-2.36h-5.004v-4.718h-5.001v-4.718zm-50.021 47.183h5.002v-2.36h-5.002zm35.015-7.077h5.001v-2.36h-5.001zm-30.013-7.078h5.002v-2.359h-5.002zm-100.042-9.437h5.003v-2.358h-5.003zm120.05-2.359h5.002v-2.359h-5.002zm0-9.436v2.358h5.002v-4.718h-5.002zm-5.002-4.72h5.002v-2.358h-5.002zm-75.031-42.464h-5.002v23.591h5.002v11.797h-5.002v11.796h-5.002v9.437h-5.002v7.077h-5.002v4.718h-5.002V974.39h-5.003v7.077h-5.001v7.077h-5.003V993.263H1819.095V988.544h5.001V939.002h-5.001v-9.437h-5.004v-4.719h-5.002v-4.718h-5.001v-4.718h-5.002v-2.36h-5.003v-2.358h-5.001V905.973h-5.003v-7.077zm115.048 33.028h5.003v-2.359h-5.003zm-60.025 0h5.002v-2.359h-5.002zm25.01-4.717v-2.36h-5.002v-2.36h-5.002v4.72h5.002zm-110.046-2.36h5.003v-2.36h-5.003zm-10.004-49.542v7.077h-5.002V887.102h-5.002v4.716h-5.001v2.36h-5.004v4.718h-5.001v9.437h-5.001v9.437h-5.003V922.487h-5.003V927.207h-5.001V931.924h-5.002v2.36h-5.003v4.718h-5.001v2.358h-5.003v4.72h-5.002V950.797h-5.001v4.72h-5.003v2.358h-5.003V962.594h-5.001v4.718h-5.001v2.358h-5.004V974.389h-5.001v2.359h-5.002v2.359h-5.002V986.185h-5.003v2.359h-5.001V993.263H1704.046V986.185h5.003V979.107h5.001v-4.718h5.001V969.67h5.004v-2.358h5.001V960.234h5.002v-35.388h5.002v-37.744h5.003v-11.797zm175.073 44.823v-2.358h-5.003v7.077h5.003v-2.36zm-5.003-7.078h-5.001v4.72h5.001v-2.36zm-10.002-2.358h5.001v-2.358h-5.001zm-50.022-2.358v-4.72h-5.003V910.692h5.003zm30.013 0h5.002v-2.36h-5.002zm5.002-2.36h5.002v-2.36h-5.002zm10.004-2.36h5.003v-2.359h-5.003zm-20.009-2.359h5.003v-2.358h-5.003zm5.003-4.718h5.002v-2.359h-5.002zm-50.022-7.077h5.003v-2.358h-5.003zm35.015-2.358h5.003v-2.362h-5.003zm5.003-7.079h5.001v-2.36h-5.001zm-120.051-7.078v-2.358h-5.001v4.718h5.001zm115.048 0h5.003v-2.358h-5.003zm-110.045-4.717v-2.36h-5.003V870.587h5.003z"/><path fill="#7E939C" d="M1724.055 868.228h5.002v-2.36h-5.002z"/><path fill="#2D5252" d="M1819.094 865.868h5.002v-2.359h-5.002z"/><path fill="#5F6F72" d="M1809.089 865.868h5.003v-2.359h-5.003z"/><path fill="#638996" d="M1764.07 865.868h5.003v-2.359h-5.003z"/><path fill="#377C8F" d="M1869.115 870.587v7.076h5.001v9.439h5.003v7.075h5.002v9.437h5.002v9.436h5v9.437h-5v-7.077h-5.002v-7.077h-5.002v2.359h-10.004v-2.359h-5.002v-2.36h-5.003v-4.718h-5.002v-4.718h-5.002v-4.719h-5.002v-4.716h-5.002v-4.72h-5.002v7.078h-5.003v33.027h5.003v7.078h5.002v9.437h5.002v28.31h-5.002v14.155h-5.002v11.796h25.01v-2.36h5.003v-11.796h5.002v-7.077h5.001v-4.718h5.003v-4.718h5.002v-28.31h5.002v4.718h5v4.718h5.005v2.36h5.001v4.717h5.001v2.36h5.003v2.36h5.654V941.36h-.651v-7.076h-5.003v-9.437h-5.003v-7.077h-5v-4.72h5v4.72h5.003v7.077h5.003v4.718h.65v-18.873h-.65v-4.718h-5.003v-4.719h-5.003v-4.718h-5v-4.719h-5.002v-4.716h-5.004v-7.079h-5.001v-4.718h-5.002v-4.718h-15.006zm25.009 33.026h5.004v-2.358h-5.004v2.358zm-50.02 7.079h5.002v-7.078h-5.002v7.078zm55.024 0h5.001v-2.359h-5.001v2.359zm-50.022 4.718h5.002v9.437h5.002v16.513h-5.002v-14.153h-5.002V915.41zm45.018 16.514h5.004v-9.437h-5.004v9.437zm5.004 7.078h5.001v-4.718h-5.001v4.718zm-40.018 16.515h5.003V943.72h-5.003v11.797z"/><path fill="#377C8F" d="M1874.116 903.614v2.36h5.003V901.255h-5.003zm-5.001-7.077h5.001v-2.359h-5.001zm-110.046-33.028v2.36h-5.002v4.718h-5.003v4.718h-5.001v11.796h-5.003v37.747h-5.002v35.386h-5.002v7.078h-5.001v2.358h-5.004v4.72h-5.001v4.716h-5.001v7.079h-5.003v7.079h35.014v-4.72h5.003v-7.077h5.001v-7.078h5.003v-7.077h5.002v-4.719h5.002v-7.077h5.002v-9.436h5.002v-11.797h5.002v-11.796h-5.002v-23.591h5.002v-4.718h-5.002v-11.797h-5.002v-16.512h-5.002v-2.36h-5.002zm-20.009 92.007v-4.719h5.003v-11.795h5.001v-16.515h5.003v18.873h-5.003v9.438h-5.001v7.077h-5.003v-2.359zm-5.002 9.437h5.002v-2.36h-5.002v2.36zm130.054-75.493h5.003v-2.358h-5.003zm-5.002-9.437v4.718h5.002v-9.436h-5.002v2.359zm5.002-11.795v-2.36h-5.002v-2.359h-5.001v11.796h5.001v-4.718H1869.115v-2.359z"/><path fill="#758F99" d="M1754.067 865.868h5.002v-2.359h-5.002z"/><path fill="#627176" d="M1739.061 865.868h5.002v-2.359h-5.002z"/><path fill="#436268" d="M1729.056 865.868h5.002v-2.359h-5.002z"/><path fill="#173D42" d="M1884.121 941.36v23.593h-5.002v2.359h-5.003v7.078h-5.001v7.077h-5.003v11.796h55.674v-14.156h-.65v-7.077h-5.003v-4.718h-5.003v-4.718h-5.001v-4.719h-5.001v-4.718h-5.004v-4.719h-5.001v-7.078zm-145.061 11.797v2.36h5.003v-4.72h-5.003zm5.003-9.437v4.718h5.001V941.36h-5.001zm70.028-82.57v4.718h-5.002v7.077h-5.001v2.36h-5.003v7.077h-5.002v2.358h-5.001V889.46h-5.003v4.718h-5.002v4.718h5.002v4.718h5.003v4.72h5.001v2.358h5.002v4.718h5.003V920.129h5.001v2.358h5.002V929.565h5.003V936.643h5.002V990.903h-5.002v2.36h10.003v-2.36h5.003v-11.796h5.002V962.594h5.002V941.36h-5.002v-9.436h-5.002v-9.437h-5.003v-35.385h5.003v-11.797h-5.003v-4.718h-5.001V865.868h-5.002v-4.718zm85.037 75.493h5.001v-2.359h-5.001zm-45.019-7.078v9.437h5.001v-11.795h-5.001zm-105.045 0v11.795h5.003v-14.153h-5.003zm145.061-2.358v2.358h5.003v-4.718h-5.003zm-40.016-7.079v-4.718h-5.003v7.077h5.003zm35.014-2.358V922.487h5.002v-7.077h-5.002zm-5.002-7.078v2.358h5.002V905.974h-5.002v2.36zm-150.064-47.183v2.359h-5.001v2.36h-5.001v2.359h-5.004v7.077h-5.001v7.077h-5.001v9.437h-5.003v4.718h-5.003V905.974h-5.001v9.436h-5.002v7.077h-5.003v2.36h-5.001v2.36h-5.003V931.924h-5.002v2.36h-5.001v4.718h-5.003v2.358h-5.003v4.72h-5.001V950.797h-5.001v2.36h-5.004v2.359h-5.001v4.718h-5.001v2.36h-5.003v4.718h-5.003v7.077h-5.001v4.718h-5.003v4.72h-5.002v2.358h-5.002v4.718H1594v2.36h15.006v-2.36h5.003v-2.359h5.001V983.827h5.003v-4.72h5.003v-2.359h5.001v-2.359h5.001v-7.077h5.004v-2.359h5.001v-2.359h5.001V957.875h5.003v-4.718h5.003v-2.36h5.001V946.08h5.002v-4.72h5.003v-2.358h5.001v-4.718h5.003V929.565h5.002v-2.358h5.001v-4.72h5.003v-7.077h5.003v-9.436h5.001v-9.437h5.001v-2.359h5.004v-2.36h5.001v-4.716h5.001V882.382h5.003v-7.077h5.003v-4.718h5.001V865.868H1739.06v-2.359zm130.055 14.155v7.077h5.003v9.437h5.001v4.718h5.003v7.077h5.002v-9.436h-5.002v-9.435h-5.003V880.023h-5.001V872.945h-5.003v2.36zm-5.002-4.719h5.002v-2.358h-5.002z"/><path fill="#7C909A" d="M1759.069 863.509h5.002v-2.359h-5.002z"/><path fill="#647479" d="M1734.058 863.509h5.003v-2.359h-5.003z"/><path fill="#4F6367" d="M1814.092 861.15h5.003v-2.358h-5.003z"/><path fill="#CDD0D6" d="M1739.061 856.432h5.002v-2.36h-5.002z"/><path fill="#ABB1B8" d="M1744.063 854.072h5.001v-2.359h-5.001z"/><path fill="#D3D6DB" d="M1754.067 844.635h5.002v-2.358h-5.002z"/><path fill="#B1B6BD" d="M1759.069 842.277h5.002v-2.359h-5.002z"/><path fill="#ABB1B8" d="M1769.073 832.84h5.003v-2.358h-5.003zm5.002-4.718h5.002v-2.36h-5.002zm5.002-4.719h5.002v-2.358h-5.002z"/><path fill="#969D9E" d="M1814.091 839.918V825.762h-5.002v-7.077h-5.001v-11.796h-5.002v2.36h-5.003v4.718h-5.001v4.718h-5.003v4.718h-5.002V828.122h-5.002v4.718h-5.002v2.359h-5.003V842.277h-5.001v2.358h-5.002v2.36h-5.003v7.077h-5.001v2.36h-5.003v2.359h-5.002v2.359h5.002v2.359h5.003v2.359H1754.067v-2.359h5.002v-2.359h5.001v2.359h5.003v18.873h5.002V894.178h5.002v-2.36h5.002v-4.716h5.003V882.382h5.001v-2.358h5.003V875.305h5.002v-4.718h5.001V863.509h5.002v-4.718h5.003V839.918z"/><path fill="#ABB1B8" d="M1794.083 809.249h5.003v-2.36h-5.003z"/><path fill="#FEFEFE" d="M1874.116 863.509V858.792h-5.001v-2.36h-5.003v-2.36h-5.002V849.355h-5.001v-2.36h-5.003v-2.36h-5.002V839.918h-5.002V835.199h-5.002v-4.718h-5.003V825.762h-5.001v-2.359h-5.002v-4.718h-5.003v-4.718h-5.001v-4.718h-5.002v9.436h5.002v7.077h5.001V839.918h5.003v23.591h5.002V870.587h5.001v4.718h5.003v7.077h5.002V887.102h5.002v4.716h5.002V896.537h5.003v4.718h5.001V905.974h5.002v2.36h5.003v2.358H1879.119v-4.718h-5.003v-9.437h-5.001v-7.077h-5.003v2.358-7.077h-5.002v-9.436h-5.001v-11.796h5.001v2.359h5.002v2.36h5.003v2.359h5.001v-2.359h5.003V863.509zm-75.03-56.62h5.002v-2.359h-5.002z"/></g><g><path fill="#5B9449" d="M1693.622 1000.443h2.209v-4.477h-2.209zm6.625-4.477h2.21v-4.473h-2.21z"/><path fill="#A2C253" d="M1638.415 964.643h2.21v-4.478h-2.21z"/><path fill="#5B9449" d="M1585.419 955.693h2.206v-4.477h-2.206zm123.661-4.477h2.209v-4.473h-2.209z"/><path fill="#4D875A" d="M1698.041 946.743h2.206v-4.477h-2.206z"/><path fill="#A2C253" d="M1598.666 946.743h2.209v-4.477h-2.209z"/><path fill="#5B9449" d="M1592.042 942.266h2.209v-4.478h-2.209zm-4.417 31.327h6.626v4.472h-4.418v13.428h2.209v4.472h4.416v4.477h15.459v.153h72.872v-.153h8.833v-4.477h-17.666v-4.472h-4.416v-4.478h-2.207v-4.472h-2.209v8.95h-4.417v4.472h-17.666v-4.472h-4.416v-4.478h-2.21v-4.472h-22.081v-4.478h-4.417v-4.472h-4.416v-13.427h-6.627v-4.473h-6.623v-4.477h-2.209v-4.472h-2.209v4.472h-2.208v4.477h-2.206v13.423h2.206z"/><path fill="#5B9449" d="M1649.457 982.543h-2.209v4.472H1653.874v-4.472h-2.209zm-37.54-22.377v-4.473h-4.417v4.473h2.208zm55.207-4.473H1686.999v-4.477h-22.085v4.477zm-39.751-13.427h22.085v-4.478h-24.292v4.478z"/><path fill="#A2C253" d="M1689.208 973.593H1684.789v8.95h6.626v-8.95zm-70.668 0h-2.206v8.95h6.625v-8.95h-2.209zm22.085-17.9h-2.21v4.472h2.21v4.478h4.416v-8.95h-2.209zm24.289-26.854h-2.207v4.477H1669.333v-4.477h-2.209z"/><path fill="#5B9449" d="M1596.458 933.316h2.207v-4.477h-2.207z"/><path fill="#A2C253" d="M1671.54 924.366h2.209v-4.477h-2.209z"/><path fill="#4F875C" d="M1605.292 924.366h2.208v-4.477h-2.208z"/><path fill="#5B9449" d="M1614.124 919.889h2.21v-4.472h-2.21z"/><path fill="#A2C253" d="M1647.248 982.543h6.626v4.472h-6.626v-4.472zm22.085-49.227h-6.626v-4.477h6.627v4.477zm15.456 44.75v-4.473h6.626v8.95h-6.627v-4.478zm-55.207-40.279h19.876v4.478h-24.293v-4.476h4.417zm8.833 22.378v-4.473h6.627v8.951h-6.627v-4.478zm26.5-8.95 22.083.002v4.477h-22.085v-4.477zm41.958 0v-4.472h-8.832l-.002-17.904h-2.21v-4.473h-4.416v-4.477h-17.664v4.477h-2.21v-4.477h2.21v-4.473h-2.21v-4.477h-4.416v-4.473h-19.874v4.473h-2.207v-4.473h-13.25v4.473h-6.626v4.478h-2.207v8.95h-4.419v-4.478h-11.039v4.477h-6.627v4.473h-2.209v4.477h-2.207v8.95h4.417v4.478h-8.833v4.472h2.21v4.477h6.623v4.473h6.625v-4.473h4.417v4.473h-4.417v13.427h4.417v4.472h4.416v-4.472h6.626v8.95h15.455v4.472h2.21v4.478h4.417v4.472h17.665v-4.472h4.417v-8.95h2.21v4.472h2.206v4.478h4.416v4.472h24.291v-4.472h4.417v-13.428h-2.207v-4.472h2.207v-4.477h4.417v-17.9h-2.208z"/><path fill="#5B9449" d="M1713.497 964.643v-13.427h-4.416V964.643h2.208v-8.95 8.95h-2.208v4.473h4.416zm-48.583-62.654h-17.666v4.477h19.876v-4.477zm-68.456 98.454v.152h13.249v-.152H1596.458v-4.478h-4.416v4.478zm88.331.152h4.419v-.152h-4.419zm11.042-4.63v4.478h4.416v-4.478h-2.206zm-105.998-4.472V978.065h4.418v-4.472h-6.626v4.472h-2.206V991.493h2.206v4.472h4.417v-4.472zm114.831-22.377v4.477h-2.207v4.472h2.207V991.493h-2.207v4.472h4.416v-4.472h2.208V978.065h-2.208v-4.472h2.208v-4.477h-2.208zm-119.245 0v-17.9h-2.21v4.477H1581V969.116h2.209v4.477h4.416v-4.477zm121.454-17.9h2.207v-4.473h-2.207zm-117.04 0v-4.472h8.832v-4.478h-2.207v-13.427h-2.207v4.477h-2.209v4.472h2.209v4.478h-4.418v4.478h-4.414v4.472h2.206zm114.831-8.95h-4.417v4.478H1706.873v-4.478zm-2.207-4.478v-4.472h-2.21v-8.95h-2.206v-4.477h-6.625v4.477h4.415v4.473h2.21V942.266h2.206v-4.478zm-101.582-8.949v-4.473h-4.417v4.473h2.207zm4.417-4.473v-4.477h-4.417v4.477h2.209zm83.916-8.949H1675.957v-4.478h-2.208v-4.473h-6.626v4.473h4.416v4.478h2.21v4.472h17.666v-4.472zm-79.5 0h-2.208v4.472H1614.123v-4.472h-2.206zm35.333-4.478h2.207v-4.473h-2.207zm-17.668-4.473h-4.414v4.473h-2.209v4.478h-2.209V924.366h4.418V915.417h2.207v-4.478H1631.792v-4.473h-2.209zm11.042 0h4.417v-4.477H1633.999v4.477h2.21z"/></g><g><path fill="#5B9449" d="M614.79 996.365h2.962v-5.987h-2.962zm8.883-5.988h2.96v-5.982h-2.96z"/><path fill="#A2C253" d="M540.769 948.487h2.96V942.5h-2.96z"/><path fill="#5B9449" d="M469.71 936.519h2.958v-5.988h-2.958zm165.806-5.989h2.958v-5.982h-2.958z"/><path fill="#4D875A" d="M620.71 924.549h2.963v-5.987h-2.963z"/><path fill="#A2C253" d="M487.474 924.549h2.963v-5.987h-2.963z"/><path fill="#5B9449" d="M478.593 918.561h2.959v-5.982h-2.959zm-5.925 41.896h8.883v5.982h-5.92v17.956h2.963v5.982h5.917v5.988h20.727v.204h97.708v-.204h11.843v-5.988h-23.685v-5.982h-5.925v-5.987h-2.959v-5.982h-2.96v11.969h-5.924v5.982H549.65v-5.982h-5.92v-5.987h-2.96v-5.982h-29.61v-5.987h-5.922v-5.982h-5.922V942.5h-8.88v-5.981h-8.885v-5.989h-2.957v-5.981h-2.963v5.981h-2.963v5.989h-2.959v17.95h2.959z"/><path fill="#5B9449" d="M555.571 972.427h-2.958v5.981h8.88v-5.981h-2.959zM505.238 942.5v-5.982H499.316v5.982h2.962zm74.023-5.981h26.647v-5.988h-29.61v5.988zm-53.296-17.958H555.571v-5.982H523.002v5.982z"/><path fill="#A2C253" d="M608.868 960.457H602.946V972.426h8.881V960.457zm-94.746 0h-2.963V972.426h8.884V960.457h-2.959zm29.607-23.938h-2.96v5.981h2.96v5.987H549.651v-11.968h-2.96zm32.569-35.908h-2.963v5.982h8.886v-5.982h-2.96z"/><path fill="#5B9449" d="M484.511 906.592h2.963v-5.982h-2.963z"/><path fill="#A2C253" d="M585.182 894.623h2.96v-5.982h-2.96z"/><path fill="#4F875C" d="M496.357 894.623h2.959v-5.982h-2.959z"/><path fill="#5B9449" d="M508.2 888.641h2.959v-5.988H508.2z"/><path fill="#A2C253" d="M552.613 972.426h8.88v5.982h-8.881v-5.981zm29.607-65.834h-8.884v-5.981h8.884v5.981zm20.726 59.847-.001-5.983h8.88v11.97h-8.878v-5.988zm-74.02-53.86 26.646-.001v5.982h-32.569v-5.982h5.923zm11.844 29.92v-5.98l8.88-.001v11.97h-8.88V942.5zm35.529-11.969h29.61v5.99l-29.61.001v-5.99zm56.255 0v-5.981l-11.844.001v-23.939h-2.958v-5.988h-5.926v-5.982h-23.684v5.982h-2.96v-5.982h2.96v-5.988h-2.96v-5.987h-5.922v-5.982h-26.648v5.982h-2.962v-5.982h-17.763v5.982h-8.883v5.987h-2.96v11.97h-5.923v-5.982h-14.804v5.982h-8.88v5.988h-2.962v5.981h-2.963v11.969h5.924v5.988h-11.842v5.981h2.957v5.99h8.885v5.98h8.88v-5.98h5.921v5.98h-5.92v17.958h5.92v5.98h5.923v-5.98h8.883v11.968h20.727v5.981h2.96v5.987h5.92v5.982h23.686v-5.982h5.924v-11.968h2.96v5.981h2.962v5.987h5.922v5.982h32.567v-5.982h5.923v-17.956h-2.962v-5.982h2.962v-5.989h5.922V930.53h-2.962z"/><path fill="#5B9449" d="M641.437 948.487V930.53h-5.921v17.957h2.958v-11.968 11.968h-2.958v5.982h5.921zm-65.139-83.791h-23.686v5.988h26.649v-5.988zm-91.787 131.669v.204h17.768v-.204h-17.768v-5.988h-5.918v5.988zm118.435.204h5.922v-.204h-5.922zm14.806-6.192v5.987h5.918v-5.987h-2.96zm-142.121-5.982v-17.957h5.921v-5.981h-8.884v5.981h-2.959v17.957h2.959v5.982H478.593v-5.982zm153.963-29.926v5.987h-2.962v5.982h2.962v17.958h-2.962v5.98H632.554v-5.98h2.962V966.438h-2.962v-5.982h2.962v-5.987h-2.962zm-159.885 0V930.531h-2.962v5.987h-2.96v17.951h2.96v5.987h5.921v-5.987zm162.845-23.939h2.963v-5.982h-2.963zm-156.923 0v-5.981h11.843v-5.988h-2.963V900.611h-2.959v5.981h-2.959v5.987h2.959v5.982h-5.921v5.988H469.709v5.981h2.959zm153.963-11.969h-5.924v5.988h8.884v-5.988zm-2.962-5.982v-5.987h-2.962V894.622h-2.96v-5.981h-8.883v5.981H617.752v5.989h2.958v17.95h2.96v-5.982zm-136.196-11.968v-5.988H484.511v5.988h2.963zm5.921-5.988v-5.982h-5.921v5.982h2.959zm112.511-11.97H591.104v-5.988h-2.963v-5.981H579.261v5.981h5.92v5.988h2.96v5.988H611.827v-5.988zm-106.589 0h-2.963v5.988H508.201v-5.988h-2.963zm47.372-5.988h2.962v-5.981h-2.962zm-23.686-5.981h-5.923v5.982h-2.957v5.987h-2.963V894.622h5.92V882.653h2.96v-5.987h8.884v-5.982h-2.959zm14.805 0h5.921v-5.988H534.844v5.988h2.963z"/><g><path fill="#835F2F" d="M377.264 936.584h1.719v-1.972h-1.719z"/><path fill="#8F6831" d="M454.696 934.613h1.722v-1.974h-1.722z"/><path fill="#6A4A29" d="M380.705 934.613h1.719v-1.974h-1.719z"/><path fill="#F3C660" d="M463.301 932.639h1.719v-1.972h-1.719z"/><path fill="#B28537" d="M449.535 930.667h1.719v-1.973h-1.719z"/><path fill="#50321E" d="M461.578 938.558v-1.974h-1.719v-1.971h-5.163v-1.974h-1.719v-1.971h-3.442v-1.974h-3.444v-1.971h-1.719v-1.974H392.751v1.974h-1.723v1.971h-3.441v1.974h-3.441v1.971h-1.722v1.974h-3.442v1.971h-3.441v1.974h-1.719V991.817H463.301v-39.451H442.65V948.421h20.651v-9.863z"/><path fill="#F6E0AD" d="M380.705 926.723h1.719v-1.974h-1.719z"/><path fill="#F6E4BC" d="M451.255 922.776v1.973h1.722"/><path fill="#EFB82D" d="M444.372 918.831h-53.343v1.973h-3.442v1.972h-1.719v1.972h-3.445v1.974h-3.44v1.971h-3.443v1.974h-3.44v1.971h-1.72v1.974h-3.44v63.122h103.244v-63.121h-3.441v-1.975H463.3v-1.97h-1.723v-1.974h-3.441v-1.971h-3.441v-1.975h-3.441v-1.972h-1.72v-1.972h-3.444v-1.973h-1.72zm-70.55 71.013-.002-51.286h1.72v-1.974h1.722v-1.971h3.441v-1.975h3.44v-1.97h3.443v-1.974h3.441v-1.971h1.722v-1.975h51.623v1.974h1.72v1.971h5.163v1.974h1.722v1.971h3.441v1.974h3.441v1.971h1.72v1.974h1.722v9.864H442.65v3.945h20.65v39.45h-89.478v-1.972z"/><path fill="#383F40" d="M396.094 968.778h-1.738v7.89h3.474V968.778z"/><path fill="#878E95" d="M399.566 976.668H392.62v-2.63h-3.472v-5.26h-1.736v-5.259h-1.739v10.519h1.739v2.63h1.736v2.631h12.154v-2.631z"/><path fill="#989EA4" d="M397.83 960.889h1.736v-2.631h-1.736zm0-2.631h1.736v-2.631h-1.736zm0-2.631h1.736v-2.629h-1.736z"/><path fill="#ABB1B8" d="M404.776 963.519h-1.735V952.998h-3.475v7.89h-1.736v2.631h-5.21V952.998h-5.207V968.779h1.735v5.259h3.472v2.63h1.736v-7.889h3.474v7.889H404.776v-5.259h1.736V963.519z"/><path fill="#F9E031" d="M436.033 947.737H415.194v2.63h22.576v-2.63zm-62.513 0h-20.837v2.63H376.992v-2.63h-1.736z"/><path fill="#926B30" d="M406.512 945.107h1.736v-2.629h-1.736z"/><path fill="#A17735" d="M404.776 945.107h1.736v-2.629h-1.736zm-1.735 0h1.735v-2.629h-1.735zm-1.739 0h1.739v-2.629h-1.739z"/><path fill="#F7DEAB" d="M436.033 929.326h1.737v-2.63h-1.737z"/><path fill="#B7833A" d="M422.14 926.696h1.736v-2.629h-1.736z"/><path fill="#7F5136" d="M441.24 955.627H415.194v34.193H442.979v-34.193zm-34.728 0h-3.471V963.519h3.471V971.409h-1.735v5.259h-3.475v2.631H389.148v-2.631h-1.736v-2.63h-1.739v-10.519h1.739V955.627h-8.685v34.193H409.984v-34.193h-1.736zm-36.467 0H352.683v34.193H373.52v-34.193h-1.739zm46.885-10.52h24.31v-7.891h-1.736v-2.63h-3.472v-2.629h-5.21v-2.631h-3.471v-2.63h-5.211v-2.629h-17.364v18.411h6.946v2.629h3.472zm-36.464 0h1.736v-2.629h8.682v-18.411H375.256v2.629h-5.21v2.63H366.577v2.631h-5.213v2.629h-3.472v2.63h-1.739v7.891H378.728zm20.836-5.26v-15.78h-1.736v18.411h1.736z"/><path fill="#351E0E" d="M349.21 939.847v7.89h1.736v-10.521h-1.736z"/><path fill="#7F5136" d="M356.153 934.586h1.739v-2.629h-1.739z"/><path fill="#351E0E" d="M439.504 989.82H415.194v2.628H442.979v-2.628h-1.739zm-32.992 0H378.727v2.628H409.984v-2.628h-1.736zm39.938-36.822H403.041v2.629h45.145v-2.629zm-60.777 0H344v2.629h5.21v36.821H373.52v-2.628H352.683v-34.193H387.412v-2.629zm26.049-5.261H442.979v-10.521h-1.739v7.891H411.722v-2.629h-3.474v5.259h1.736zm-57.305 0H382.202v-2.63H356.153v-7.891h1.739v-2.63h3.471v-2.629h-5.21v2.629H352.683v2.63h1.734-3.471v10.521h1.737zm50.359-5.259v-18.411h-5.21v18.411h2.608zm-39.938-10.521h1.739v-2.631h3.468v-2.63h-5.207v2.63h-3.475v2.631h1.736zm8.682-5.261h1.736v-2.629h-5.21v2.629h1.735z"/><path fill="#F5CA6F" d="M427.351 924.067h1.735v-2.631h-1.735z"/><path fill="#F7E0B0" d="M363.099 924.067h1.739v-2.631h-1.739z"/><path fill="#F1B82D" d="M446.45 955.627h-3.471v36.821h-27.785V955.627h-5.211v36.821H378.727V955.627h-5.207v36.821H349.21V955.627H344v42.082h104.186v-42.082z"/><path fill="#F1B82D" d="M368.31 918.806v2.63h-3.471v2.63h-5.209v2.63h-3.478v2.63h-5.205v2.63h-3.476v2.63H344v18.412h48.62v10.52h5.211v-10.52h50.355v-18.412h-3.468v-2.63h-3.478v-2.63h-5.207v-2.63h-3.475v-2.63h-5.208v-2.63h-3.475v-2.63H368.31zm31.257 21.041v-15.781h24.309v2.63h3.475v2.63h3.471v2.63h5.211v2.63h3.471v2.63h3.475v10.522h-5.209v2.63h-22.576v-2.63h-6.946v-2.63h-6.946v-2.63h-1.735v-2.63zm-50.357 5.26v-7.89h3.473v-2.631h3.47v-2.63h5.21v-2.63h3.476v-2.63h5.206v-2.63h20.839v18.412h-8.682v5.26h-5.21v2.63h-24.309v-2.63h-3.473v-2.63z"/><path fill="#F9E031" d="M412.626 976.388V955.627h-2.642V978.117h2.642zm-36.467 0V955.627h-2.638V978.117h2.638z"/><path fill="#EFB82D" d="M442.979 952.998h20.322v-1.606h-20.322z"/></g><g><path fill="#5B9449" d="M728.544 992.571h2.334v-4.713h-2.334z"/><path fill="#A2C253" d="M663.217 959.563h2.335v-4.718h-2.335z"/><path fill="#5B9449" d="M607.225 950.131h2.332v-4.718h-2.332zm130.651-4.718h2.335V940.7h-2.335z"/><path fill="#4D875A" d="M726.212 940.7h2.332v-4.719h-2.332z"/><path fill="#A2C253" d="M621.22 940.7h2.335v-4.719h-2.335z"/><path fill="#5B9449" d="M614.223 935.982h2.334v-4.719h-2.334zm-4.666 33.013h7v4.713h-4.669v14.15h2.335v4.713h4.666v4.718h16.332v.162h76.99v-.162h9.333v-4.718H702.88v-4.713h-4.666v-4.718h-2.332v-4.714h-2.334v9.432h-4.667v4.713h-18.664v-4.713h-4.666v-4.718h-2.334v-4.714h-23.33v-4.718h-4.666v-4.713h-4.666v-14.15h-7v-4.714h-6.998v-4.718h-2.334V940.7h-2.335v4.713h-2.331v4.718h-2.332v14.145h2.332z"/><path fill="#5B9449" d="M674.884 978.427h-2.335v4.713h7.001v-4.713h-2.335zm-39.663-23.582v-4.714h-4.666v4.714h2.331zm58.327-4.714h20.998v-4.718H691.213v4.718zm-41.997-14.15H674.884v-4.718h-25.665v4.718z"/><path fill="#A2C253" d="M716.881 968.995h-4.67V978.426H719.212V968.995zm-74.662 0h-2.332V978.426h7.001V968.995h-2.335zm23.332-18.864h-2.334v4.714h2.334v4.718h4.666v-9.432h-2.334zm25.662-28.3h-2.332v4.719H695.882v-4.719h-2.334z"/><path fill="#5B9449" d="M618.889 926.55h2.331v-4.719h-2.331z"/><path fill="#A2C253" d="M698.214 917.118h2.334v-4.719h-2.334z"/><path fill="#4F875C" d="M628.22 917.118h2.335v-4.719h-2.335z"/><path fill="#5B9449" d="M637.553 912.399h2.334v-4.713h-2.334z"/><path fill="#A2C253" d="M672.549 978.426h7v4.714h-7v-4.714zm23.333-51.876h-7v-4.718h7v4.718zm16.33 47.158v-4.713h6.998v9.432h-7v-4.72zm-58.328-42.445h21v4.718h-25.665v-4.718h4.666zm9.332 23.582v-4.714h7v9.432h-7v-4.718zm27.996-9.432h23.334v4.718h-23.333v-4.718zm44.331 0V940.7h-9.332l.001-18.868h-2.334v-4.714h-4.666v-4.719h-18.664v4.72h-2.334v-4.72h2.334v-4.712h-2.334v-4.719h-4.666v-4.713h-20.999v4.713h-2.333v-4.713h-13.997v4.713h-7v4.719h-2.332v9.432h-4.668v-4.72h-11.664v4.72h-7v4.713h-2.335v4.718h-2.331v9.431h4.666v4.719h-9.332v4.713h2.333v4.718h6.998v4.714h7v-4.714h4.666v4.714h-4.664v14.151h4.666v4.712h4.666v-4.713h7v9.432h16.33v4.713h2.334v4.718h4.666v4.713h18.664v-4.713h4.666v-9.431h2.334v4.713h2.332v4.718h4.666v4.713h25.664v-4.713h4.666v-14.151h-2.332v-4.711h2.332v-4.72h4.666v-18.863h-2.332z"/><path fill="#5B9449" d="M742.542 959.563v-14.15h-4.666v14.15h2.334v-9.432 9.432h-2.334v4.714h4.666zm-51.329-66.027h-18.664v4.719H693.548v-4.719zm-72.324 103.753v.162h13.997v-.162h-13.997v-4.718h-4.666v4.718zm-7.001-9.431V973.708H616.557v-4.713h-7v4.713h-2.332v14.15h2.332v4.713h4.666v-4.713zm121.322-23.582v4.719h-2.332v4.713h2.332v14.15h-2.332v4.713h4.666v-4.713h2.332V973.708h-2.332v-4.713h2.332v-4.719h-2.332zm-9.332 28.295v4.719h4.666v-4.719h-2.332z"/><path fill="#5B9449" d="M721.401 997.836h2.758v-5.577h-2.758zm-114.176-33.56v-18.863h-2.335v4.718h-2.334v14.145h2.334v4.719h4.667v-4.719zm128.319-18.863h2.332V940.7h-2.332zm-123.656 0V940.7h9.332v-4.718h-2.331v-14.151h-2.332v4.718h-2.334v4.714h2.334v4.719H611.888v4.718h-4.663v4.713h2.332zm121.322-9.432h-4.666v4.719h7v-4.719z"/><path fill="#5B9449" d="M730.878 931.263v-4.713h-2.334v-9.432h-2.332v-4.719h-7v4.719h4.666v4.713h2.334v14.151h2.332v-4.719zm-107.323-9.432v-4.713h-4.666v4.713h2.331zm4.666-4.713v-4.719h-4.667v4.719h2.335zm88.66-9.432H702.88v-4.718h-2.332v-4.713h-7v4.713h4.666v4.718h2.334v4.714h18.664v-4.714zm-83.995 0h-2.331v4.714h6.998v-4.714h-2.332zm37.331-4.718h2.332v-4.714h-2.332zm-18.666-4.713h-4.664v4.713h-2.334v4.718h-2.334v9.432h4.668v-9.432h2.332v-4.718h7v-4.713h-2.334zm11.666 0h4.666v-4.719h-9.332v4.719h2.334z"/></g><path fill="#5B9449" d="M896.768 932.431h8.672v-.299h-8.672z"/></g><g><path fill="#7E4D2E" d="M1312 877v10.623h12.564v5.201h5.828v6.177h5.827V907h77.162v-9.3h8.393v-4.876h5.361v-5.525H1435V877z"/><path fill="#945835" d="M1426.348 880.117v5.333h-7.365V877h-2.614v7.115h-3.326v2.669h-4.278v-2.669h-6.415v4h-6.178V877h-1.188v6.451h-7.365v6.999h-9.029v-5.334h-5.94v-2.999h-1.902v10.332h-6.652v-6.665h-3.327v5h-5.939v-5.668h-5.466v-4.665h-2.138v3.664h-1.902v5.334h-4.038v-5.334h-5.229v6.669h-4.037v-8.667h-7.604v3.667H1318v1.839h7.794v5.201h5.792v3.958h5.661v2.219h.13v3.117h3.434v-5.001h6.891v6h5.226v-4.333h4.516v1.332h6.652v-3.334h11.643v-1.998h14.493v7.334h2.139v-4.001h11.643V907h4.513v-14.551h4.752v7.002h.784V897.7h2.781v-3.25h5.56v-1.626h5.328v-5.525H1433v-7.182z"/><g transform="translate(1312 849)"><path fill="#A27357" d="M118.786 33.744h1.178v-.08c-.394.017-.786.044-1.178.08"/><mask id="b" fill="#fff"><use xlink:href="#a"/></mask><path fill="#7E4D2E" d="M107.876 28.282h3.813v-4.437h-3.813zm-37.89 0h3.813v-4.437h-3.813zm-20.018 0h3.814v-4.437h-3.814zM34.597 45.518h3.157v-4.437h-3.157zm7.089 3.471h3.158v-4.437h-3.158zm19.264-6.145h3.158v-4.437H60.95zm-3.118 6.543h3.157V44.95h-3.157zm11.796-5.121h3.158v-4.437h-3.158zm9.532 1.252h3.159v-4.437H79.16zm5.363 2.22h3.158V43.3h-3.158zm7.446-5.69h3.158v-4.437h-3.158zm8.192 1.537h3.158v-4.437h-3.158zm15.3-5.099h.567v-.875h-3.157v4.437h2.59zm-5.344 5.658h.917V43.3h-3.158v4.438h2.241zM94.209 54.961h3.157v-4.437h-3.157zm-65.927-5.006h3.157v-4.437h-3.157zm-9.252.321h1.447v-4.437H19.03zm-7.27-13.632v2.174h1.461v2.263h1.697v-4.437zm21.764-8.362h3.814v-4.437h-3.814zm47.901 1.996h3.813v-4.437h-3.813zm12.457-.119h3.813v-4.437h-3.813zm-78.707 0h3.814v-4.437h-3.814z" mask="url(#b)"/><path d="M25.536 57.66h75.519v-9.52h8.364v-4.993h5.345v-5.658h7.84V28.94H1.394v8.88h12.524v5.327h5.809v6.323h5.81v8.192zm76.912 1.997H24.141v-8.19h-5.808v-6.325h-5.81v-5.326H0V26.942h123.998v12.542h-7.84v5.658h-5.344v4.993h-8.366v9.522z" mask="url(#b)"/><path fill="#A2C253" d="M.697 27.941h122.604V1.32H.697z" mask="url(#b)"/><path fill="#8BA648" d="M123.301 8.262h-3.509v4.098h-2.384v4.095h-5.48v3.414h-5.242v-5.803h-2.384V12.36h-4.766v-2.048h-4.29v5.12h-2.145v7.508h-2.382v-7.508h-3.814V8.604h-2.621v9.559h-8.578V8.945H67.84v6.827h-4.288v3.414h-5.481v-4.437h-1.907v2.048h-5.48V5.875h-5.005v5.462H38.29v3.753H27.567v9.558h-4.766V11.337h-6.196v4.777H8.502v6.826H.697v5.001h6.138v2.218h3.812v-2.218h11.082v3.499h3.812v-3.499h4.172v2.56h3.811v-2.56h7.507v2.338h3.813v-2.338h11.082v3.499h3.813v-3.499h3.931v2.338h3.814v-2.338h10.127v3.499h3.814v-3.499h6.732v3.499h3.812v-3.499h7.865v3.499h3.813v-3.499h10.246v.854h3.814v-.854h5.594z" mask="url(#b)"/><path d="M100.531 30.441h2.419v-3.498h11.64v.852h2.42v-.852h5.594V2.318H1.394v24.625h6.138v2.218H9.95v-2.218h12.476v3.498h2.418v-3.498h5.566v2.56h2.417v-2.56h8.9v2.337h2.42v-2.337h12.475v3.498h2.419v-3.498h5.327v2.337h2.419v-2.337h11.521v3.498h2.42v-3.498h8.127v3.498h2.417v-3.498h9.26v3.498zm3.813 1.997h-5.206v-3.499h-6.472v3.499H87.46v-3.499h-5.337v3.499h-5.207v-3.499H68.18v2.338h-5.208v-2.338h-2.537v3.499h-5.207v-3.499H45.54v2.338h-5.207v-2.338h-6.112v2.56h-5.207v-2.56h-2.777v3.499h-5.206v-3.499h-9.687v2.22H6.138v-2.22H0V.322h123.998v28.617h-5.594v.855h-5.208v-.855h-8.852v3.499z" mask="url(#b)"/></g></g><g><path fill="#0797BB" d="M1375.56 838.991h1.241v-2.486h-1.241zm-6.204-2.486h1.24v-2.484h-1.24zm12.408-14.908h1.242v-2.485h-1.242zm-13.65 0h1.242v-2.485h-1.242z"/><path fill="#5A95A8" d="M1349.501 816.628h1.24v-2.485h-1.24z"/><path fill="#0797BB" d="M1385.488 806.689v2.484h-1.242v-2.483h1.242zm-17.374 0h-2.482v-2.485h1.241v-2.484h1.24l.001-2.485h2.483v2.484h-1.241v2.485h-1.242v2.485zm21.096-9.939v2.485h-1.24v-2.485h1.24z"/><path fill="#C1DEEA" d="M1379.283 806.689h1.24v-2.485h-1.24z"/><path fill="#0797BB" d="M1351.982 801.72h1.241v-2.485h-1.241z"/><path fill="#C4DFEA" d="M1375.56 799.235h1.241v-2.485h-1.241z"/><path fill="#0797BB" d="M1369.356 799.235h1.24v-2.485h-1.24zm2.482-2.485h1.24v-2.485h-1.24z"/><path fill="#00B5E2" d="M1370.597 829.052h-1.241v-2.486h-1.242V821.597h-1.241v-2.484h-1.241v-4.971h-1.24v-2.484H1347.019v2.484h3.722v2.486h2.482v2.485h2.482v2.484h2.482v2.485h2.482v2.484h3.723v2.486h2.481v2.484h2.483v2.485h2.482v-2.485h-1.241zm7.445 0V824.082h1.241v-2.485h1.241v-2.484h1.241v-2.485h1.241V811.658h-16.133V816.628h1.241v2.485h1.242V824.082h1.241v2.484h1.241V831.536h1.24v2.485h2.482v-2.485h1.241v-2.484zm11.168-4.97h1.241v-2.485h-1.241zm2.482-2.485h1.241v-2.485h-1.241zm2.482-2.485h1.24v-2.484h-1.24zm2.482-2.484h1.24v-2.486h-1.24zm3.723-2.485h1.241v-2.484h-1.241z"/><path fill="#00B5E2" d="M1392.933 811.659h-7.445v2.484h-1.241v2.485h-1.241V821.597h-1.241v2.486h-1.241v2.483h-1.241v2.486h-1.241v2.484h-1.241v2.485h2.482v-2.485h2.482v-2.484h2.482v-2.486h2.482v-4.969h2.481v-2.485h1.241v-2.484h2.482v-2.485h2.482v-2.484h-1.241zm-14.891-14.909h1.241v2.485h1.241v2.484h1.241v2.485h1.241v2.485h2.482v-4.97h1.241V794.265h1.241v-2.485H1376.801v2.485h1.241zm-16.132 0v2.485h1.24v2.484h1.242v4.97h1.24v-2.485h1.241v-2.485h1.241v-2.484h1.242v-2.485h1.24v-2.485h1.242v-2.485H1360.669v2.485h1.241z"/><path fill="#78CBED" d="M1387.97 824.083h1.24v-2.486h-1.24zm9.926-12.424h-2.482v2.484h4.965v-2.484h-1.241zm-33.504-2.486h1.24v-2.484h-1.24zm28.541-4.969v-2.485h-1.241V796.75h-1.241v-4.97h-1.241v7.455h-1.24V804.204h-1.241V809.173h7.445v-2.484h-1.241zm-11.168 0h-1.241V809.173h2.482v-2.484h-1.241zm-19.855 0v-2.485h-1.241V796.75h-1.241v-4.97h-1.241v2.485h-1.241v2.485h-2.482v2.485h-1.241v2.484h-2.482v2.485h-1.24v2.485h-2.482v2.484H1363.15v-2.484h-1.24zm17.373-2.485h-1.241v2.485h2.482v-2.485zm-16.133 2.485h1.242v-2.484h-1.242zm13.651-2.484h1.241v-2.485h-1.241zm-3.723-7.455v2.485h-1.24v2.485h-1.241v2.484h-1.241v2.485h-1.242v2.485h-1.24v2.484h7.445V796.75h1.241v-2.485h-1.241z"/><path fill="#0797BB" d="M1359.427 824.082h-1.24v-2.485h-2.482v2.485h2.482v2.484h2.482v-2.484zm16.133-29.816v2.484h1.241v2.485h1.242v2.485h2.481v-2.485h-1.241v-2.485h-1.24v-2.485h-1.242v.001zm6.205 39.755v-2.485h-2.482v2.485h1.241zm-6.205-2.485v2.485h-2.482v-2.485h-1.24v2.485h-1.242v2.485h1.242v2.485H1375.56v-2.485h3.723v-2.485h-2.482v-2.485zm-8.687 0v2.485h2.483v-2.485h-1.242zm17.373 0v-2.484h-2.481v2.484h1.241zm-7.445 0h1.241v-2.484h-1.241zm-11.169-2.484h-1.24v2.484h2.481v-2.484zm21.097 0v-2.486h2.481v-2.484h-2.481v2.484h-2.483v2.486h1.242zm-14.891-2.486h-1.241v-2.484h-1.241v-2.485h-1.242V826.566h1.242v2.486h1.241v2.484h1.241v-2.484zm-8.688 0h-1.24v2.486h2.482v-2.486zm27.301-4.969v2.485h2.482v-2.485h-1.241zm2.482-2.484v2.484h2.482v-2.484h-1.241zm-12.409 2.484h-1.241v2.485h-1.241V829.052h1.241v-2.486h1.241v-2.484h1.241V819.113h-1.241zm-26.06-2.484h-1.241v2.484h2.482v-2.484zm40.951-2.485v2.485h2.482v-2.485h-1.241zm-13.651 2.484h1.242v-2.484h-1.242zm-13.65-2.484h-2.482v2.485h1.241v2.484h1.241v-2.484zm-16.132 0h-1.241v2.485h2.482v-2.485zm45.914-2.486v2.486h2.483v-2.486h-1.241z"/><path fill="#0797BB" d="M1358.187 789.296v2.484h1.24v4.97h1.242v4.97h1.241v4.97h1.24v2.484h-16.13v-2.484h-1.243v2.484h-2.481v2.485h1.24v2.485h2.484v2.485h2.48v-2.485h-2.48v-2.485h17.373v2.485h1.24v2.485h1.242v-4.97h-1.242 17.374v4.97h1.24v-2.485h1.242v-2.485h16.131v2.485h1.24v-2.485h2.482v-2.485h-2.482v-2.484h-1.24v-2.485h-2.481v2.485h1.24v2.484h-13.65v-4.97h1.24v-7.454h1.24v-4.97h1.242v-2.484h-32.264zm14.893 4.969h3.72v-2.485h11.17v2.485h-1.241v7.454h-1.241v7.454h-1.242v-2.483h-1.24v2.484h-16.132v-2.484h-1.242v2.484h-1.24v-4.97h-1.242v-4.969h-1.24v-4.97h-1.24v-2.485h11.169v2.485h1.24z"/><path fill="#0797BB" d="M1381.764 806.689h1.242v-2.485h-1.242zm-32.263 0v-2.485h1.24v-2.485h-2.481v2.485h-1.241v2.485h1.241zm31.023-2.485h1.24v-2.484h-1.24zm16.132-2.485v2.485h2.482v-2.485h-1.242v-2.484h-2.481v2.484zm-44.674-2.484h2.482v-2.485h-2.482v2.485h-1.241v2.484h1.241zm18.615-2.485v2.485h1.241v-4.97h-1.241zm-13.65 0v-2.484h-1.242v-.001h-1.241v2.485h1.241zm34.745-2.485v2.485h1.241v2.485h2.482v-2.485h-1.241v-2.485h-1.241v-2.485h-2.482v2.485zm-33.505 0v-2.485h-2.482v2.485h1.241z"/><path fill="#FEFEFE" d="M1386.729 824.083h1.241v-2.486h-1.241zm7.445-9.941h-1.241v2.486h-2.482v2.485h-1.241v2.484h2.482v-2.484h2.482v-2.485h2.482v-2.486h-1.242zm-14.891-9.938h-1.241v-2.485h-1.241v-2.484h-1.241v-2.485h-1.241V809.173h6.205v-2.484h-1.241zm19.855 2.485v-2.485h-2.482v-2.485h-1.241v-2.484h-2.482v-2.485h-1.241V801.719h1.241v4.97h1.241v2.484h6.205v-2.484zm-8.687-9.939h1.241v-2.485h-1.241z"/></g></g></svg>