<svg xmlns="http://www.w3.org/2000/svg" width="485" height="32"><g fill="none" fill-rule="evenodd"><path fill="#98C261" d="M0 15h485V0H0z"/><path fill="#7EA250" d="M177.94 3v2.969h-29.224v2.042h-42.422v5.197H87.44V5.969H62.93v2.599H30.877v3.712H0V15h485V4.299h-13.876v2.227h-9.427v2.228h-21.683v1.856h-20.739V7.455h-9.428v-.929h-18.854V5.413h-16.968v2.784h-8.486v4.083h-9.426V8.197h-15.084V4.485H330.66v5.197h-33.938V4.67h-31.11v3.712h-16.968v1.857h-21.682V7.826h-7.542V8.94h-21.683V3z"/><path fill="#754A30" d="M0 32h485V15H0z"/><path fill="#8C5739" d="M408.904 15v4.033h-13.198v1.511h-16.968v-1.511h-25.454v2.266h-24.51V15h-4.714v3.655h-29.223v3.967h-35.824v-3.023h-23.568v-1.7h-7.541v5.856h-26.396v-3.778h-13.197v2.833h-23.568v-3.211h-21.684v-2.644h-8.483v2.078h-7.542v3.022h-16.027v-3.022H90.269v3.777H74.241v-4.911H44.075v2.078H18.622v3.4H0v3.401h22.393V32h12.256v-6.923H52.56v3.401h13.198v-2.267h29.224v3.022h14.141V26.4h27.337v3.4h20.741v-2.456h17.911v.756h26.396v-1.889H247.7v-1.134h57.506v4.156h8.485v-2.266h46.193V32h17.91v-8.245h18.856v3.967h14.141v-2.833h32.994v5.666h22.625V28.1h2.828v-4.345H485v-1.7h-10.106v-5.289h-26.395v3.022h-29.224V15z"/></g></svg>