<svg xmlns="http://www.w3.org/2000/svg" width="157" height="24"><g fill="none" fill-rule="evenodd"><path fill="#2F1414" stroke="#000" stroke-width=".5" d="M15.286 16.253V7.646h-2.87V4.778H6.68V19.12h5.738v-2.868h2.869zm5.737 0h-2.868v2.868h-2.87v2.87L.943 21.99V1.908h14.344v2.869h2.869v2.868h2.868v8.607zM35.367 4.778v14.343h5.738v2.869H23.892v-2.869h5.737V4.778h-5.737V1.909h17.213v2.869zm17.213 0v2.868h-2.87v5.738h8.607V7.646h-2.869V4.778H52.58zm-8.607 2.868h2.87V4.778h2.868v-2.87h8.606v2.87h2.87v2.868h2.867V21.99h-5.737v-5.737h-8.606v5.737h-5.738V7.646zm22.951-5.737h5.737v2.869h2.869v2.868h2.868V4.778h2.869V1.909h5.738V21.99h-5.738V10.515h-2.869v2.869H75.53v-2.869h-2.869V21.99h-5.737zm45.9 0h5.738v2.869h2.869v2.868h2.868v2.869h2.869V1.909h5.737V21.99h-5.737v-2.869h-2.869v-2.868h-2.868v-2.869h-2.869v8.606h-5.738z"/><path fill="#000" d="m90.088 21.51.375.43.863-.75-.374-.43zm-1.009-2.905.374.43.862-.749-.374-.43zm8.92-.19.375.43.862-.75-.374-.43zm-4.12-4.74.375.432.863-.75-.375-.432z"/><path fill="#5A95A8" d="m89.987 5.713.375.431.862-.75-.374-.43z"/><path fill="#FF7878" d="m103.06 15.526.375.431.863-.75-.375-.43z"/><path fill="#FFBFBF" d="m102.426 13.053.374.431.863-.75-.375-.43z"/><path fill="#FF7878" d="m98.306 8.315.375.43.862-.75-.374-.43zm1.237-.32.374.43.863-.749-.374-.43z"/><path fill="#000" d="m95.912 2.076.375.431.862-.75-.374-.43z"/><path fill="#FF7878" d="m107.635 13.82.374.43.863-.75-.374-.43z"/><path fill="#FFBFBF" d="m103.89 9.512.375.43.863-.75-.375-.43z"/><path fill="#000" d="m102.018 7.358.374.43.863-.75-.374-.43zm1.611.111.375.431.862-.75-.374-.43z"/><path fill="#FF4E4E" d="m92.04 16.786-.374-.43.863-.75-.375-.431.862-.75.863-.75-.374-.43.863-.75-.375-.431.863-.75.862-.75-.374-.43.862-.75-.374-.432-.374-.43-.375-.43-.374-.432-.375-.43-.375-.431-.374-.431-.375-.431-.374-.43-.374-.431-.375-.431-.375-.431-.374-.43-.374-.431-.863.75.375.43.374.43.374.431-.862.75.374.431.375.431-.863.75.374.43.375.431-.863.75.375.431.374.431-.862.75.374.43.375.432-.863.75.375.43.374.43.375.432-.863.75.374.43.375.431-.863.75.374.43.376.432-.863.75.374.43.375.431.862-.75-.374-.43z"/><path fill="#FF6161" d="m94.288 19.372.863-.75.862-.75.374.43.863-.75.374.432.863-.75.375.43.862-.75.375.432.863-.75.862-.75-.374-.431-.375-.43-.375-.432-.374-.43-.374-.431-.375-.43-.374-.432-.375-.43-.375-.432-.374-.43-.374-.43-.376-.433-.373-.43-.863.75-.863.75.374.43-.862.75.375.432-.863.75-.862.75.374.43-.863.75.375.43-.863.75-.863.75.375.431-.863.75.375.431.374.431.863-.75.375.431.862-.75z"/><path fill="#FF7878" d="m99.383 21.75.375.43.863-.75-.375-.43zm1.612.11.374.431.863-.75-.375-.43zm1.611.113.375.43.863-.75-.375-.43zm1.612.112.374.43.864-.75-.374-.431zm1.986.542.375.43.862-.75-.374-.43z"/><path fill="#FF4E4E" d="m104.82 19.292-.374-.43-.376-.432-.373-.43-.375-.431-.375-.431-.374-.43-.863.749-.375-.431-.862.75-.374-.43-.863.75-.862.75-.375-.431-.863.75-.374-.432-.862.75-.375-.431-.863.75-.374-.43-.863.75-.374-.431-.863.75.375.43.374.431.862-.75.375.431.374.431.863-.75.375.431.374.43.863-.75.375.43.374.432.862-.75.863-.75.374.431.375.431.863-.75.374.43.862-.75.375.433.374.43.863-.75.375.43.374.432.863-.75-.375-.431zm.682-9.668.374.43-.863.75.375.43-.863.75.375.432-.863.75.375.43-.863.75.374.43.375.431.863-.75.862-.75.375.432.862-.75.863-.75.863-.75.374.43.863-.749-.375-.431-.374-.43-.375-.432-.374-.43-.374-.431-.375-.43-.375-.432-.374-.43-.374-.431-.863.75.375.43zm-4.868-5.601-.863.75.374.43-.863.75.375.43-.863.75-.862.75.374.432.863-.75.374.43.863-.75.374.431.863-.75.375.432.863-.75.374.43.862-.75.375.431.862-.75-.374-.43-.374-.43-.375-.433-.374-.43-.375-.43-.375-.432-.374-.43-.374-.43-.375-.432-.862.75.374.431z"/><path fill="#FF7878" d="m99.009 21.318.374.43.862-.75-.374-.43zm7.309-.303-.374-.43-.375-.431-.863.75.375.43.374.43.375.433.374.43.863-.75-.374-.43zM97.069 8.634l.375.43.862-.75-.374-.43z"/><path fill="#FF4E4E" d="m107.408 17.042.862-.75-.374-.43.863-.75.863-.75-.376-.431.863-.75.863-.75-.374-.43-.863.75-.863.75-.862.75-.375-.431-.863.75-.862.75-.375-.432-.862.75-.863.75.375.431.374.431.374.43.375.432.374.43.375.431.863-.75-.375-.43z"/><path fill="#FF7878" d="m104.037 13.165-.374-.43-.863.75-.862.75.374.43.375.431.862-.75-.374-.43zm-5.991-6.892.862-.75-.374-.431.862-.75.863-.75-.375-.43.863-.75.863-.75-.375-.432-.863.75-.374-.43-.863.75-.374-.432-.375-.43-.863.75-.374-.43-.862.749-.375-.431-.375-.43-.862.749-.375-.431-.862.75-.374-.43-.375-.431-.863.75.375.43.374.43.375.432.374.43.375.432.374.43.374.43.375.432.375.43.374.432.375.43.374.431.374.43.863-.75-.374-.43zm6.105 5.28-.375-.43-.862.75.374.43.375.431.862-.75zm-5.731-4.85.374.43.863-.75-.375-.43zm4.982 3.99.374.43.863-.75-.374-.43zm1.464-3.543-.862.75-.375-.431-.863.75-.374-.431-.863.75-.374-.43-.862.75-.376-.432-.862.75-.374-.43-.863.75.374.43.375.431.374.43.375.431.375.431.374.431.863-.75.862-.75.863-.75.863-.75.862-.75.375.432.863-.75-.375-.431z"/><path fill="#000" d="m90.395 11.41-.374-.431.862-.75-.374-.431-.375-.43-.862.749.374.43.375.432-.863.75.375.43.374.432.863-.75zm15.22-3.398-.862.75.375.43-.863.75.375.432-.863.75.374.43.374.43.863-.75-.375-.43.863-.75-.374-.43.863-.75-.375-.431zm-11.93 14.152.863-.75-.374-.43-.375-.432-.862.75.374.431zm-1.009-2.904-.863.75-.374-.431-.375-.43.863-.75-.375-.432-.862.75-.375-.43-.863.75.375.43-.863.75.375.43.375.432.374.43.863-.75.374.432.375.43.374.43.863-.749-.374-.43-.375-.431.863-.75zm-2.622-3.016-.862.75.374.43.375.432.863-.75-.376-.432zm5.243 6.031.863-.75-.374-.43-.375-.43-.863.749.375.431zm-2.246-2.584.374.43.862-.75-.374-.43zm-2.509-4.628-.374-.43-.863.75.375.43.374.431.863-.75zm6.367 7.324.863-.75.374.431.375.431.862-.75-.374-.43-.375-.432-.862.75-.375-.43-.375-.432-.862.75.374.431zm-3.631-5.92-.375-.43.863-.75-.374-.43.862-.75-.375-.432-.863.75-.862.75.375.431-.863.75.374.43-.862.75.374.431.863-.75zm-2.622-3.015-.374-.43-.863.75.374.43.375.43.863-.75zm9.965 7.978-.863.75.374.43.375.431.862-.75-.374-.43zm1.61.112-.862.75.375.43.374.431.863-.75-.375-.43zm-4.607-3.558-.374-.431-.863.75-.374-.431-.863.75-.863.75.375.43.863-.75.374.431.863-.75.374.431.863-.75.863-.75-.375-.43zm-7.002-9.798-.374-.43-.862.75.374.43.374.431.863-.75zm13.222 13.468-.863.75.375.43.374.43.862-.75-.374-.43zm-4.982-3.99.374.432.863-.75-.375-.431zm-3.258-5.489-.374-.43-.374-.43-.863.749.375.43-.863.75.374.431.863-.75zm-4.868-5.6-.374-.43-.863.75.375.43.374.431.863-.75zm14.719 15.19-.863.75.376.431.373.43.863-.75-.374-.43z"/><path fill="#000" d="m102.098.48-.863.75.374.43-1.725 1.5.375.432-1.725 1.5.374.43-1.726 1.5.375.43-.863.75-4.867-5.599.863-.75-.375-.43-.863.75-.75-.863-.862.75.374.43-.863.75.75.862-.863.75.749.861.863-.75-.748-.86.862-.75 5.242 6.03-.862.75.374.43-.863.75.375.432 1.726-1.5-.375-.43 5.243 6.031-1.725 1.5.374.43.862-.75.375.431.863-.75 4.868 5.6-.862.75.374.43.862-.749.75.862.862-.75-.748-.861.862-.75-.374-.43.863-.75-.75-.862-.862.75.374.43-.863.75-4.119-4.739 1.725-1.5.375.431 2.588-2.25.374.43L110.597 12l.375.431.862-.75-9.736-11.2zm2.768 6.67 1.124 1.292.862-.75 3.371 3.878-.863.75-.374-.43-2.587 2.249-.375-.432-2.589 2.25-.374-.43.863-.75-.375-.43-.862.75-4.869-5.602.863-.75-.375-.43-.862.75-.374-.43 1.725-1.5-.375-.432 1.725-1.5-.373-.43 1.725-1.5-.375-.43.863-.75 3.37 3.877-.863.75.375.43z"/><path fill="#000" d="m103.175 13.915.374.431.863-.75-.375-.43zm-4.494-5.17.374.43.862-.75-.374-.43zm-5.243-6.031.862-.75.375.431.862-.75-.374-.43-.374-.431-.863.75-.374-.431-.863.75.375.43zm10.225 10.02.374.431.863-.75-.375-.43zm5.731 4.851-.863.75.374.43.376.432.862-.75-.375-.432.863-.75-.374-.43-.375-.43-.863.75zm-7.751-10.659-.863.75-.863.75.376.432.862-.75.374.43.863-.75-.374-.43zm-4.868-5.6.374.431.374.43.863-.75-.374-.43-.375-.43-.862.75L96.4.894l-.863.75.375.431zm6.48 5.712-.863.75.374.43.863-.749.863-.75-.375-.43zM99.135 2.3l.863-.75-.375-.43-.374-.431-.863.75.375.43zm11.349 11.313-.863.75.375.43-.863.75.374.432.375.43.863-.75-.375-.43.863-.75-.375-.431.863-.75-.375-.431-.374-.43-.862.75zM100.372 1.98l.863-.75-.375-.43-.374-.431-.863.75.375.43z"/><path fill="#FFBCB3" d="m98.634 20.887.375.431.862-.75-.374-.43z"/><path fill="#FFF" d="m104.332 20.473-.375-.431-.863.75-.374-.431-.374-.43-.863.75-.374-.431-.863.75.375.43.374.43.862-.75.375.432.374.43.863-.75.375.432.374.43.863-.75-.375-.43zm-1.044-8.17-.374-.43.862-.75-.374-.43.863-.75-.375-.431.863-.75-.375-.431-.862.75-.863.75-.863.75-.862.75-.863.75.375.43.374.431.374.43.375.431.375.431.862-.75-.374-.43zm5.13 7.644.863-.75-.376-.432-.374-.43.863-.75-.375-.43.863-.75-.375-.431-.374-.431.863-.75-.375-.431-.863.75-.862.75.374.43-.862.75-.863.75.375.431-.863.75.375.431.374.43.374.431.375.432.374.43.863-.75z"/><path fill="#F99" d="m109.247 13.932.374.43.863-.75-.374-.43z"/><path fill="#2F1414" stroke="#000" stroke-width=".5" d="M135.774 1.909V21.99h14.344v-2.869h2.869v-2.869h2.868V7.646h-2.868V4.778h-2.869v-2.87h-14.344zm5.738 2.869h5.737v2.868h2.87v8.606h-2.87v2.87h-5.737V4.777z"/></g></svg>